# xmcd
#
# Track frame offsets:
#	150
#	18601
#	35373
#	52863
#	67690
#	77671
#	92586
#	105029
#	120503
#	136522
#
# Disc length: 2029 seconds
#
# Revision: 1
# Processed by: cddbd v1.4PL0 Copyright (c) Steve Scherf et al.
# Submitted via: EasyCDDAExtractor 5.0.7
#
DISCID=6207eb0a
DTITLE=Boomer McLennan - Hopeful Moon
DYEAR=2002
DGENRE=Country
TTITLE0=Cowboy Up
TTITLE1=A Red Guitar And The Blues
TTITLE2=Every Beat Of My Heart
TTITLE3=Hopeful Moon
TTITLE4=Opry Music
TTITLE5=You Soothe My Soul
TTITLE6=Tears Of My Heart
TTITLE7=Pretty Senorita
TTITLE8=A Love That Has No End
TTITLE9=Cold, Cold Night
EXTD=
EXTT0=
EXTT1=
EXTT2=
EXTT3=
EXTT4=
EXTT5=
EXTT6=
EXTT7=
EXTT8=
EXTT9=
PLAYORDER=
